<?xml version="1.0" standalone="no"?>
<!DOCTYPE svg PUBLIC "-//W3C//DTD SVG 20010904//EN"
 "http://www.w3.org/TR/2001/REC-SVG-20010904/DTD/svg10.dtd">
<svg version="1.0" xmlns="http://www.w3.org/2000/svg"
 width="238.000000pt" height="238.000000pt" viewBox="0 0 238.000000 238.000000"
 preserveAspectRatio="xMidYMid meet">
<metadata>
Created by potrace 1.14, written by Peter Selinger 2001-2017
</metadata>
<g transform="translate(0.000000,238.000000) scale(0.100000,-0.100000)"
fill="#000000" stroke="none">
<path d="M1086 2348 c3 -4 -9 -5 -26 -3 -16 2 -33 -1 -36 -7 -4 -6 -10 -5 -15
3 -8 12 -11 12 -18 -1 -6 -8 -13 -11 -16 -8 -4 4 -19 2 -34 -4 -14 -6 -36 -10
-48 -9 -13 0 -23 -3 -23 -7 0 -4 -9 -9 -20 -10 -11 -1 -29 -3 -40 -4 -11 -1
-20 -6 -20 -11 0 -5 -7 -6 -16 -3 -8 3 -12 2 -9 -4 3 -6 -2 -10 -12 -10 -11 0
-28 -7 -39 -15 -10 -8 -27 -15 -36 -15 -10 0 -18 -5 -18 -11 0 -5 -4 -8 -9 -5
-5 3 -14 -1 -21 -9 -7 -8 -16 -12 -21 -9 -5 3 -9 0 -9 -5 0 -6 -5 -11 -10 -11
-18 0 -101 -57 -151 -102 -16 -15 -29 -25 -29 -22 0 3 -7 -1 -15 -10 -8 -8
-15 -19 -15 -25 0 -6 -3 -10 -7 -9 -10 4 -59 -45 -55 -54 1 -5 -5 -8 -14 -8
-8 0 -13 -4 -9 -9 3 -6 -4 -15 -15 -21 -11 -6 -18 -14 -16 -19 3 -4 -6 -15
-20 -25 -13 -11 -24 -25 -24 -33 0 -8 -9 -23 -19 -35 -11 -11 -17 -27 -14 -36
5 -11 2 -14 -8 -10 -10 4 -15 -1 -17 -15 0 -12 -6 -23 -12 -25 -5 -2 -8 -8 -4
-13 3 -5 0 -9 -5 -9 -6 0 -10 -3 -10 -7 3 -19 -2 -33 -17 -47 -12 -12 -12 -16
-2 -16 10 0 10 -2 -1 -9 -8 -5 -16 -18 -18 -28 -2 -10 -5 -25 -8 -33 -2 -8 -4
-19 -4 -23 -1 -5 -5 -6 -10 -3 -4 3 -7 -7 -5 -22 1 -14 -1 -31 -6 -37 -4 -5
-11 -27 -14 -49 -4 -21 -9 -42 -12 -47 -3 -5 1 -9 8 -9 9 0 9 -3 -2 -10 -8 -5
-11 -10 -6 -10 5 0 3 -6 -3 -14 -9 -11 -9 -15 1 -19 7 -3 8 -6 2 -6 -6 -1 -9
-18 -7 -40 1 -22 -2 -43 -7 -46 -6 -4 -7 -12 -3 -18 12 -20 12 -67 0 -67 -8 0
-8 -3 -2 -8 6 -4 11 -20 12 -37 1 -16 3 -49 4 -72 1 -24 7 -43 12 -43 5 0 5
-6 -2 -13 -7 -10 -7 -17 0 -24 6 -6 11 -27 12 -46 0 -20 5 -34 9 -31 4 3 8 -6
8 -19 0 -13 7 -38 16 -55 8 -18 13 -36 9 -42 -3 -5 -3 -10 2 -10 4 0 14 -15
22 -33 41 -98 56 -127 64 -127 6 0 8 -3 4 -6 -3 -4 -1 -12 6 -20 25 -28 33
-39 33 -46 -1 -3 9 -18 21 -32 13 -14 21 -26 18 -26 -2 0 11 -16 31 -35 19
-19 32 -40 29 -45 -4 -6 -2 -9 3 -8 5 2 35 -21 66 -50 31 -28 59 -52 62 -52 4
0 15 -10 25 -22 11 -11 19 -18 19 -14 0 4 9 2 20 -4 11 -6 17 -16 14 -22 -4
-6 -3 -8 3 -5 5 4 19 -2 29 -12 11 -9 25 -16 32 -13 6 2 12 -1 12 -8 0 -6 4
-8 10 -5 5 3 10 1 10 -5 0 -6 4 -8 10 -5 5 3 10 3 10 -2 0 -4 14 -16 31 -25
16 -10 27 -13 24 -8 -3 6 1 7 9 4 9 -3 16 -10 16 -16 0 -5 4 -6 10 -3 5 3 10
2 10 -2 0 -5 12 -10 28 -11 15 -1 28 -7 30 -12 2 -6 17 -10 33 -10 16 0 29 -4
29 -8 0 -7 31 -13 83 -15 9 -1 17 -4 17 -8 0 -4 12 -7 28 -8 15 0 37 0 50 -1
15 0 21 -4 16 -13 -5 -9 -4 -9 7 1 17 16 32 16 23 0 -6 -10 -4 -10 8 0 11 9
18 10 23 2 4 -7 12 -7 26 0 10 6 19 7 19 2 0 -5 7 -9 15 -9 8 0 12 4 9 9 -3 4
0 8 5 8 6 0 11 -5 11 -11 0 -8 4 -8 14 0 9 8 16 8 20 2 5 -7 15 -7 33 0 20 7
28 6 34 -3 7 -10 11 -10 21 1 11 11 11 13 -1 6 -10 -6 -12 -4 -6 4 5 9 10 10
18 2 7 -7 16 -7 29 0 11 6 26 8 33 5 8 -3 17 -1 21 5 4 6 11 6 20 -2 9 -7 14
-8 13 -3 -4 21 2 28 11 14 6 -9 10 -11 10 -3 0 7 6 10 14 7 8 -3 17 0 21 5 3
6 11 9 16 6 5 -4 9 -2 9 4 0 6 7 7 17 4 12 -5 14 -3 8 8 -8 12 -6 12 8 0 14
-11 18 -11 23 2 3 9 12 13 20 10 8 -3 14 0 14 7 0 6 5 8 10 5 6 -3 10 -2 10 3
0 6 8 9 18 8 9 0 16 4 15 10 -1 6 4 11 12 11 8 0 12 -5 9 -11 -3 -6 0 -4 8 5
7 9 21 15 30 13 11 -1 15 3 11 12 -3 9 1 14 12 14 10 0 24 8 32 18 8 9 12 12
9 6 -3 -6 1 -11 8 -11 8 0 12 6 10 12 -3 7 3 18 13 26 17 13 17 13 3 -5 -14
-18 -14 -18 7 -6 12 8 19 18 17 22 -3 4 2 8 10 8 9 0 16 5 16 11 0 5 5 7 10 4
6 -3 10 -2 10 3 0 5 15 20 34 33 19 13 32 27 30 31 -3 4 0 8 7 8 14 0 59 47
59 62 0 6 3 8 6 5 10 -10 45 34 37 46 -3 5 -2 8 3 5 9 -5 45 27 38 34 -2 2 9
18 24 35 15 17 28 37 30 44 2 8 9 17 15 21 7 4 8 8 4 8 -5 0 1 13 12 29 11 15
18 31 14 35 -3 3 -2 6 4 6 11 0 27 37 24 54 -1 5 3 13 10 17 7 4 14 18 16 31
2 13 8 25 13 26 6 2 8 8 4 13 -3 5 -2 15 2 21 7 11 11 27 16 66 1 6 4 12 8 12
3 0 6 8 7 17 5 43 11 79 19 97 6 15 4 17 -7 11 -11 -7 -12 -6 -3 6 6 8 12 34
13 58 1 25 4 48 7 53 3 4 -1 8 -8 8 -8 0 -9 3 -3 8 10 7 15 112 5 112 -3 0 -5
18 -3 40 1 22 -2 42 -6 44 -4 3 -6 21 -5 40 2 20 -1 36 -7 36 -6 0 -7 5 -4 10
4 6 1 18 -7 27 -11 14 -11 16 2 8 13 -7 13 -6 2 7 -7 9 -14 30 -15 47 -1 17
-5 31 -8 31 -4 0 -10 7 -13 16 -4 10 -2 13 7 8 6 -4 4 2 -6 14 -11 12 -16 26
-11 33 5 8 3 10 -5 5 -8 -5 -12 -3 -11 5 3 21 -11 59 -21 59 -5 0 -9 9 -9 20
0 11 -5 20 -11 20 -5 0 -8 4 -5 9 3 5 0 14 -8 20 -8 7 -17 23 -20 36 -4 14
-11 25 -17 25 -6 0 -7 5 -4 10 3 6 1 10 -4 10 -6 0 -11 7 -11 15 0 9 -7 18
-15 21 -8 4 -13 10 -10 14 3 5 -3 11 -14 15 -10 3 -22 17 -25 31 -4 15 -11 22
-18 18 -8 -5 -9 -1 -4 12 4 10 4 15 0 12 -3 -4 -25 12 -48 36 -22 24 -60 56
-83 71 -24 15 -40 32 -36 38 3 6 1 7 -6 3 -6 -4 -14 -1 -17 8 -3 9 -12 12 -21
9 -10 -4 -14 -2 -10 4 4 7 -5 14 -23 18 -17 4 -30 13 -30 22 0 9 -6 13 -15 10
-8 -4 -17 -2 -20 3 -7 12 -65 40 -82 40 -7 0 -13 5 -13 10 0 6 -11 10 -25 10
-14 0 -25 5 -25 10 0 6 -10 10 -23 10 -13 0 -27 3 -31 7 -3 4 -12 8 -19 9 -7
2 -23 5 -37 9 -64 15 -110 22 -115 17 -3 -3 -5 -1 -5 4 0 5 -16 10 -35 10 -20
1 -32 -3 -29 -8 4 -6 -5 -2 -20 7 -15 10 -26 13 -26 6 0 -5 -6 -8 -14 -5 -21
8 -175 10 -170 2z"/>
</g>
</svg>
